<?xml version="1.0" standalone="no"?>
<!DOCTYPE svg PUBLIC "-//W3C//DTD SVG 1.1//EN" "http://www.w3.org/Graphics/SVG/1.1/DTD/svg11.dtd" >
<svg>
<metadata>
Created by FontForge 20090914 at Fri Feb 24 04:32:37 2012
 By root
</metadata>
<defs>
<font id="DIN1451fetteBreitschrift1936-Regular" horiz-adv-x="1489" >
  <font-face 
    font-family="DIN 1451 fette Breitschrift 1936"
    font-weight="400"
    font-stretch="normal"
    units-per-em="2048"
    panose-1="2 11 6 3 5 3 2 2 2 4"
    ascent="1638"
    descent="-410"
    x-height="931"
    cap-height="1304"
    bbox="-30 -387 2243 1964"
    underline-thickness="0"
    underline-position="0"
    unicode-range="U+0020-U+2122"
  />
<missing-glyph horiz-adv-x="745" 
d="M664 -291v1886h-583v-1886h583zM0 -372v2048h745v-2048h-745z" />
    <glyph glyph-name=".notdef" horiz-adv-x="745" 
d="M664 -291v1886h-583v-1886h583zM0 -372v2048h745v-2048h-745z" />
    <glyph glyph-name="NULL" horiz-adv-x="0" 
 />
    <glyph glyph-name="nonmarkingreturn" horiz-adv-x="2366" 
 />
    <glyph glyph-name="space" unicode=" " horiz-adv-x="1064" 
 />
    <glyph glyph-name="a" unicode="a" 
d="M466 0q-58 0 -109 22t-89 60t-60 89t-22 109q0 56 22 107t60 89t89 60.5t109 22.5h373q92 0 92 92q0 94 -92 94h-373q-94 0 -94 -94h-186q0 57 22 108t60 89t89 60.5t109 22.5h373q56 0 107 -22.5t89 -60.5t60 -89t22 -108v-371q0 -94 94 -94h92v-186h-92q-108 0 -186 72
q-82 -72 -186 -72h-373zM931 388q-40 -15 -92 -15h-373q-94 0 -94 -93q0 -94 94 -94h373q92 0 92 94v108z" />
    <glyph glyph-name="o" unicode="o" 
d="M745 931q114 0 216 -37t177.5 -100t120 -148t44.5 -180q0 -96 -44.5 -181t-120 -148t-177.5 -100t-216 -37t-216 36.5t-178 100t-120.5 147.5t-44.5 182q0 97 44.5 181t120.5 147.5t178 100t216 36.5zM745 745q-76 0 -143.5 -22t-118.5 -59.5t-81 -88.5t-30 -109
q0 -59 30 -110t81 -88.5t118.5 -59.5t143.5 -22q75 0 142.5 22t118.5 60t81 89t30 109q0 57 -30 108t-81 89t-118.5 60t-142.5 22z" />
    <glyph glyph-name="b" unicode="b" 
d="M745 931q114 0 216 -37t177.5 -100t120 -148t44.5 -180q0 -193 -202 -330q-202 -136 -356 -136q-79 0 -135 3.5t-97.5 11.5t-74.5 19.5t-66 27.5v-62h-186v1304h186v-435q29 13 78 25t103.5 20t105.5 12.5t86 4.5zM372 650v-369q112 -95 373 -95q55 0 120.5 21.5
t121 59.5t93 89t37.5 110q0 58 -37.5 109t-93 89t-121 59.5t-120.5 21.5q-261 0 -373 -95z" />
    <glyph glyph-name="thorn" unicode="&#xfe;" 
d="M745 931q114 0 216 -37t177.5 -100t120 -148t44.5 -180q0 -193 -202 -330q-202 -136 -356 -136q-79 0 -135 3.5t-97.5 11.5t-74.5 19.5t-66 27.5v-434h-186v1676h186v-435q29 13 78 25t103.5 20t105.5 12.5t86 4.5zM372 650v-369q112 -95 373 -95q55 0 120.5 21.5
t121 59.5t93 89t37.5 110q0 58 -37.5 109t-93 89t-121 59.5t-120.5 21.5q-261 0 -373 -95z" />
    <glyph glyph-name="p" unicode="p" 
d="M745 931q114 0 216 -37t177.5 -100t120 -148t44.5 -180q0 -193 -202 -330q-202 -136 -356 -136q-79 0 -135 3.5t-97.5 11.5t-74.5 19.5t-66 27.5v-434h-186v1303h186v-62q29 13 78 25t103.5 20t105.5 12.5t86 4.5zM372 650v-369q112 -95 373 -95q55 0 120.5 21.5
t121 59.5t93 89t37.5 110q0 58 -37.5 109t-93 89t-121 59.5t-120.5 21.5q-261 0 -373 -95z" />
    <glyph glyph-name="q" unicode="q" 
d="M745 931q35 0 87 -4.5t105.5 -12.5t102 -20t77.5 -25v62h186v-1303h-186v434q-34 -16 -66.5 -27.5t-74.5 -19.5t-97 -11.5t-134 -3.5q-155 0 -357 136q-202 137 -202 330q0 97 44.5 181t120.5 147.5t178 100t216 36.5zM1117 650q-112 95 -372 95q-57 0 -122 -21.5
t-121 -59.5t-93 -89t-37 -109q0 -59 37 -110t93 -89t121 -59.5t122 -21.5q260 0 372 95v369z" />
    <glyph glyph-name="d" unicode="d" 
d="M745 931q35 0 87 -4.5t105.5 -12.5t102 -20t77.5 -25v435h186v-1305h-186v63q-34 -16 -66.5 -27.5t-74.5 -19.5t-97 -11.5t-134 -3.5q-155 0 -357 136q-202 137 -202 330q0 97 44.5 181t120.5 147.5t178 100t216 36.5zM1117 650q-112 95 -372 95q-57 0 -122 -21.5
t-121 -59.5t-93 -89t-37 -109q0 -59 37 -110t93 -89t121 -59.5t122 -21.5q260 0 372 95v369z" />
    <glyph glyph-name="h" unicode="h" 
d="M745 931q114 0 216 -37t177.5 -100t120 -148t44.5 -180v-466h-186v466q0 58 -37.5 109t-93 89t-121 59.5t-120.5 21.5q-261 0 -373 -95v-651h-186v1305h186v-435q29 13 78 25t103.5 20t105.5 12.5t86 4.5z" />
    <glyph glyph-name="n" unicode="n" 
d="M745 931q114 0 216 -37t177.5 -100t120 -148t44.5 -180v-466h-186v466q0 58 -37.5 109t-93 89t-121 59.5t-120.5 21.5q-261 0 -373 -95v-651h-186v932h186v-62q29 13 78 25t103.5 20t105.5 12.5t86 4.5z" />
    <glyph glyph-name="g" unicode="g" 
d="M186 466q0 78 27.5 142.5t74.5 115.5t110 89t134 63t146 37t146 12q173 0 293 -56v62h186v-837q0 -192 -174 -328q-176 -138 -384 -138q-210 0 -347 58t-212 151l154 104q24 -28 66 -51.5t96 -39.5t116 -25.5t127 -9.5q129 0 239 90q108 89 128 155q-121 -58 -284 -58
q-74 0 -150 13t-147.5 38.5t-134 64t-109.5 90t-74 116t-27 142.5zM372 466q0 -77 38 -129.5t97.5 -86t134 -48.5t147.5 -15q104 0 190 25.5t138 68.5v369q-24 21 -60 38t-78.5 28.5t-91 17.5t-98.5 6q-76 0 -150.5 -15.5t-134 -49t-96 -85.5t-36.5 -124z" />
    <glyph glyph-name="e" unicode="e" 
d="M745 931q114 0 216 -37t177.5 -100t120 -148t44.5 -180v-93h-909q18 -40 53 -75t80.5 -59.5t101 -38.5t116.5 -14q187 0 298 112l165 -92q-76 -95 -196.5 -150.5t-266.5 -55.5q-114 0 -216 36.5t-178 100t-120.5 147.5t-44.5 182q0 97 44.5 181t120.5 147.5t178 100
t216 36.5zM1096 559q-19 40 -54 74.5t-81 59t-101 38.5t-115 14t-115.5 -14t-101.5 -38.5t-81 -59t-53 -74.5h702z" />
    <glyph glyph-name="c" unicode="c" horiz-adv-x="1394" 
d="M745 931q73 0 140 -14.5t126 -41.5t109 -65t88 -85l-165 -92q-111 112 -298 112q-76 0 -143.5 -22t-118.5 -59.5t-81 -88.5t-30 -109q0 -59 30 -110t81 -88.5t118.5 -59.5t143.5 -22q187 0 298 112l165 -92q-76 -95 -196.5 -150.5t-266.5 -55.5q-114 0 -216 36.5
t-178 100t-120.5 147.5t-44.5 182q0 97 44.5 181t120.5 147.5t178 100t216 36.5z" />
    <glyph glyph-name="m" unicode="m" horiz-adv-x="2235" 
d="M686 931q297 0 437 -186q148 186 435 186q219 0 355 -126.5t136 -338.5v-466h-187v466q0 115 -81 197t-223 82q-158 0 -252.5 -72.5t-94.5 -206.5v-466h-186v466q0 134 -88.5 206.5t-250.5 72.5q-202 0 -314 -94v-651h-186v931h186v-61q129 61 314 61z" />
    <glyph glyph-name="r" unicode="r" horiz-adv-x="1026" 
d="M186 931h186v-92q95 90 278 92q93 0 189 -27l-63 -175q-64 16 -126 16q-278 -2 -278 -345v-400h-186v931z" />
    <glyph glyph-name="u" unicode="u" 
d="M744 -1q-113 0 -215 36.5t-178 100t-120.5 147.5t-44.5 181v466h186v-466q0 -59 37 -109.5t93 -88.5t121 -59.5t121 -21.5q261 0 373 95v651h186v-932h-186v62q-29 -14 -77.5 -25.5t-103 -19.5t-106 -12.5t-86.5 -4.5z" />
    <glyph glyph-name="i" unicode="i" horiz-adv-x="558" 
d="M186 931h186v-931h-186v931zM186 1304h186v-187h-186v187z" />
    <glyph glyph-name="j" unicode="j" horiz-adv-x="558" 
d="M0 -185h92q94 0 94 93v1023h186v-1023q0 -58 -22.5 -109t-60.5 -89t-89 -60t-108 -22h-92v187zM186 1304h186v-187h-186v187z" />
    <glyph glyph-name="l" unicode="l" horiz-adv-x="558" 
d="M466 180v-186q-58 0 -109 22t-89 59.5t-60 88.5t-22 109v1024h186v-1024q0 -93 94 -93z" />
    <glyph glyph-name="f" unicode="f" horiz-adv-x="1026" 
d="M745 1117q-23 0 -55 -7t-61.5 -19.5t-49.5 -29.5t-20 -36v-94h280v-186h-280v-738h-187v738h-186v186h186l1 101q0 56 30 105.5t81.5 86.5t118.5 58.5t142 21.5q23 0 46 -2.5t48 -6.5v-190q-13 4 -19 6.5t-13.5 3.5t-20.5 1.5t-41 0.5z" />
    <glyph glyph-name="t" unicode="t" horiz-adv-x="1023" 
d="M700 193q40 -2 73.5 10.5t65.5 47.5v-191q-47 -43 -139 -53q-119 1 -193.5 45t-103.5 107t-30 121l-1 465h-186v186h186v280h187v-280h280v-186h-280v-459q0 -20 17.5 -40t43 -36.5t80.5 -16.5z" />
    <glyph glyph-name="k" unicode="k" 
d="M186 0v1304h186v-800l608 427h323l-429 -301l429 -630h-225l-356 522l-350 -246v-276h-186z" />
    <glyph glyph-name="z" unicode="z" 
d="M186 931h1117v-186l-794 -559h794v-186h-1117v186l794 559h-794v186z" />
    <glyph glyph-name="x" unicode="x" 
d="M440 0h-254l432 466l-432 465h254l305 -328l305 328h253l-431 -465l431 -466h-253l-305 329z" />
    <glyph glyph-name="w" unicode="w" horiz-adv-x="2233" 
d="M387 931l311 -702l310 702h215l311 -702l311 702h202l-411 -931h-204l-316 717l-317 -717h-203l-411 931h202z" />
    <glyph glyph-name="y" unicode="y" 
d="M394 931l351 -720l351 720h207l-534 -1094q-101 -209 -335 -209h-154v187h154q117 0 168 104l39 81l-455 931h208z" />
    <glyph glyph-name="v" unicode="v" 
d="M394 931l351 -720l351 720h207l-454 -931h-208l-455 931h208z" />
    <glyph glyph-name="s" unicode="s" 
d="M745 931q305 0 558 -92l-69 -162q-214 68 -489 68q-31 0 -85 -2.5t-133 -4.5q-155 -7 -155 -96q0 -83 94 -83h559q56 0 107 -21.5t89 -57.5t60 -84.5t22 -103.5q0 -216 -203 -254q-204 -38 -355 -38q-306 0 -559 92l70 163q212 -69 489 -69q30 0 83.5 1t133.5 5
q156 4 156 98q0 83 -93 83h-559q-58 0 -109 21t-89 57t-60 84.5t-22 104.5q0 215 202 253t357 38z" />
    <glyph glyph-name="dieresis" unicode="&#xa8;" 
d="M372 1304h186v-187h-186v187zM930 1304h186v-187h-186v187z" />
    <glyph glyph-name="ydieresis" unicode="&#xff;" 
d="M394 931l351 -720l351 720h207l-534 -1094q-101 -209 -335 -209h-154v187h154q117 0 168 104l39 81l-455 931h208zM372 1304h186v-187h-186v187zM930 1304h186v-187h-186v187z" />
    <glyph glyph-name="odieresis" unicode="&#xf6;" 
d="M745 931q114 0 216 -37t177.5 -100t120 -148t44.5 -180q0 -96 -44.5 -181t-120 -148t-177.5 -100t-216 -37t-216 36.5t-178 100t-120.5 147.5t-44.5 182q0 97 44.5 181t120.5 147.5t178 100t216 36.5zM745 745q-76 0 -143.5 -22t-118.5 -59.5t-81 -88.5t-30 -109
q0 -59 30 -110t81 -88.5t118.5 -59.5t143.5 -22q75 0 142.5 22t118.5 60t81 89t30 109q0 57 -30 108t-81 89t-118.5 60t-142.5 22zM372 1304h186v-187h-186v187zM930 1304h186v-187h-186v187z" />
    <glyph glyph-name="edieresis" unicode="&#xeb;" 
d="M745 931q114 0 216 -37t177.5 -100t120 -148t44.5 -180v-93h-909q18 -40 53 -75t80.5 -59.5t101 -38.5t116.5 -14q187 0 298 112l165 -92q-76 -95 -196.5 -150.5t-266.5 -55.5q-114 0 -216 36.5t-178 100t-120.5 147.5t-44.5 182q0 97 44.5 181t120.5 147.5t178 100
t216 36.5zM1096 559q-19 40 -54 74.5t-81 59t-101 38.5t-115 14t-115.5 -14t-101.5 -38.5t-81 -59t-53 -74.5h702zM372 1304h186v-187h-186v187zM930 1304h186v-187h-186v187z" />
    <glyph glyph-name="adieresis" unicode="&#xe4;" 
d="M466 0q-58 0 -109 22t-89 60t-60 89t-22 109q0 56 22 107t60 89t89 60.5t109 22.5h373q92 0 92 92q0 94 -92 94h-373q-94 0 -94 -94h-186q0 57 22 108t60 89t89 60.5t109 22.5h373q56 0 107 -22.5t89 -60.5t60 -89t22 -108v-371q0 -94 94 -94h92v-186h-92q-108 0 -186 72
q-82 -72 -186 -72h-373zM931 388q-40 -15 -92 -15h-373q-94 0 -94 -93q0 -94 94 -94h373q92 0 92 94v108zM372 1304h186v-187h-186v187zM930 1304h186v-187h-186v187z" />
    <glyph glyph-name="udieresis" unicode="&#xfc;" 
d="M744 -1q-113 0 -215 36.5t-178 100t-120.5 147.5t-44.5 181v466h186v-466q0 -59 37 -109.5t93 -88.5t121 -59.5t121 -21.5q261 0 373 95v651h186v-932h-186v62q-29 -14 -77.5 -25.5t-103 -19.5t-106 -12.5t-86.5 -4.5zM372 1304h186v-187h-186v187zM930 1304h186v-187
h-186v187z" />
    <glyph glyph-name="A" unicode="A" horiz-adv-x="1872" 
d="M931 1094l-308 -628h616zM531 280l-137 -280h-208l642 1304h207l641 -1304h-207l-137 280h-801z" />
    <glyph glyph-name="I" unicode="I" horiz-adv-x="558" 
d="M186 0v1304h186v-1304h-186z" />
    <glyph glyph-name="P" unicode="P" horiz-adv-x="1676" 
d="M186 1304h931q76 0 143.5 -29.5t119 -81t81 -119t29.5 -143.5t-29.5 -144.5t-81 -118.5t-119 -79.5t-143.5 -29.5h-745v-559h-186v1304zM1117 745q38 0 72 15t59 40t40 59t15 72t-15 71.5t-40.5 59t-59 40.5t-71.5 15h-745v-372h745z" />
    <glyph glyph-name="B" unicode="B" horiz-adv-x="1676" 
d="M186 1304h931q76 0 143.5 -29.5t119 -81t81 -119t29.5 -143.5q0 -166 -127 -280q127 -113 127 -278q0 -77 -29.5 -144.5t-80 -118.5t-119 -80.5t-144.5 -29.5h-931v1304zM1117 559h-745v-373h745q38 0 72 15t59 40.5t40 59.5t15 72t-15 71.5t-40.5 59t-59 40.5t-71.5 15z
M372 1117v-372h745q38 0 72 15t59 40t40 59t15 72t-15 71.5t-40.5 59t-59 40.5t-71.5 15h-745z" />
    <glyph glyph-name="E" unicode="E" horiz-adv-x="1676" 
d="M186 1304h1304v-187h-1118v-372h931v-186h-931v-373h1118v-186h-1304v1304z" />
    <glyph glyph-name="F" unicode="F" horiz-adv-x="1676" 
d="M186 1304h1304v-187h-1118v-372h931v-186h-931v-559h-186v1304z" />
    <glyph glyph-name="R" unicode="R" horiz-adv-x="1676" 
d="M186 1304h931q76 0 143.5 -29.5t119 -81t81 -119t29.5 -143.5t-29.5 -144.5t-81 -118.5t-119 -79.5t-143.5 -29.5h-45l418 -559h-234l-417 559h-467v-559h-186v1304zM372 1117v-372h745q38 0 72 15t59 40t40 59t15 72t-15 71.5t-40.5 59t-59 40.5t-71.5 15h-745z" />
    <glyph glyph-name="O" unicode="O" horiz-adv-x="1676" 
d="M839 1304q268 0 459 -192q192 -191 192 -461t-192 -460q-193 -191 -459 -191q-271 0 -462 191q-191 188 -191 460q0 271 191 461q191 192 462 192zM839 1117q-96 0 -181 -37t-148.5 -100t-100.5 -148t-37 -181q0 -95 37 -180t100.5 -148t148.5 -100t181 -37q94 0 179 37
t148 100.5t100 148t37 179.5t-37 180t-100 148.5t-148 100.5t-179 37z" />
    <glyph glyph-name="Q" unicode="Q" horiz-adv-x="1676" 
d="M839 1304q268 0 459 -192q192 -191 192 -461q0 -184 -97 -341l191 -100v-210l-315 164q-184 -164 -430 -164q-271 0 -462 191q-191 188 -191 460q0 271 191 461q191 192 462 192zM1228 396q75 117 75 255q0 95 -37 180t-100 148.5t-148 100.5t-179 37q-96 0 -181 -37
t-148.5 -100t-100.5 -148t-37 -181q0 -95 37 -180t100.5 -148t148.5 -100t181 -37q132 0 249 73l-157 83v209z" />
    <glyph glyph-name="D" unicode="D" horiz-adv-x="1676" 
d="M186 1304h653q268 0 459 -192q192 -191 192 -461t-192 -460q-190 -191 -459 -191h-653v1304zM839 186q94 0 179 37t148 100.5t100 148t37 179.5t-37 180t-100 148.5t-148 100.5t-179 37h-467v-931h467z" />
    <glyph glyph-name="C" unicode="C" horiz-adv-x="1676" 
d="M885 1304q95 0 183.5 -23.5t166 -66.5t142.5 -102.5t111 -130.5l-164 -90q-34 50 -80.5 92t-103.5 72t-121.5 46t-133.5 16q-106 0 -199 -37t-163 -100t-110.5 -148t-40.5 -181q0 -95 40.5 -180t110.5 -148t163 -100t199 -37q70 0 135 16.5t121.5 47t103 72.5t80.5 93
l164 -89q-45 -73 -109 -133t-142 -103t-167.5 -66.5t-185.5 -23.5q-290 0 -495 191q-204 190 -204 460q0 268 204 461q203 192 495 192z" />
    <glyph glyph-name="G" unicode="G" horiz-adv-x="1676" 
d="M839 1304q268 0 460 -190l-132 -132q-135 135 -328 135q-96 0 -181 -37t-148.5 -100t-100.5 -148t-37 -181q0 -95 37 -180t100.5 -148t148.5 -100t181 -37q84 0 159.5 29t135.5 79t102 118.5t58 146.5h-549v186h745v-94q0 -270 -192 -460q-193 -191 -459 -191
q-271 0 -462 191q-191 188 -191 460q0 271 191 461q191 192 462 192z" />
    <glyph glyph-name="H" unicode="H" horiz-adv-x="1676" 
d="M1303 1304h187v-1304h-187v559h-931v-559h-186v1304h186v-559h931v559z" />
    <glyph glyph-name="N" unicode="N" horiz-adv-x="1676" 
d="M1303 1304h187v-1304h-187l-931 1027v-1027h-186v1304h186l931 -1027v1027z" />
    <glyph glyph-name="T" unicode="T" horiz-adv-x="1676" 
d="M186 1304h1304v-187h-559v-1117h-186v1117h-559v187z" />
    <glyph glyph-name="U" unicode="U" horiz-adv-x="1676" 
d="M1490 651q0 -270 -192 -460q-193 -191 -459 -191q-271 0 -462 191q-191 190 -191 460v653h186v-653q0 -95 37 -180t100.5 -148t148.5 -100t181 -37q94 0 179 37t148 100.5t100 148t37 179.5v653h187v-653z" />
    <glyph glyph-name="L" unicode="L" horiz-adv-x="1676" 
d="M186 1304h186v-1118h1118v-186h-1304v1304z" />
    <glyph glyph-name="Z" unicode="Z" horiz-adv-x="1676" 
d="M186 0v186l1028 931h-1028v187h1304v-187l-1028 -931h1028v-186h-1304z" />
    <glyph glyph-name="K" unicode="K" horiz-adv-x="1676" 
d="M186 1304h186v-691l827 691h291l-657 -549l657 -755h-247l-553 636l-318 -265v-371h-186v1304z" />
    <glyph glyph-name="M" unicode="M" horiz-adv-x="2048" 
d="M186 1304h221l618 -957l616 957h221v-1304h-186v1014l-532 -828h-240l-532 828v-1014h-186v1304z" />
    <glyph glyph-name="J" unicode="J" horiz-adv-x="1303" 
d="M1117 466q0 -96 -41 -181t-111 -148.5t-163 -100t-197 -36.5q-269 0 -420 200l158 100q97 -114 262 -114q66 0 125.5 22t104 60t70.5 89t26 109v838h186v-838z" />
    <glyph glyph-name="S" unicode="S" horiz-adv-x="1676" 
d="M186 930q0 82 32.5 141.5t85.5 101t121.5 67t141.5 40t143.5 19.5t128.5 5q176 0 343.5 -46.5t307.5 -140.5l-162 -114q-105 56 -229 85t-260 29q-30 0 -77 -1t-98.5 -6.5t-103.5 -16.5t-94 -31.5t-68 -53t-26 -78.5q0 -143 174 -161q88 -9 184 -16t201 -13
q105 -5 200.5 -25t183.5 -52q175 -65 175 -289q-1 -83 -34 -142.5t-86 -101t-120.5 -67t-140 -40t-143 -19t-127.5 -4.5q-191 0 -359 49t-294 137l162 115q105 -58 231.5 -86.5t259.5 -28.5q28 0 74 0.5t97.5 6t103.5 17t94 32t68.5 53t26.5 79.5q0 142 -174 160
q-88 9 -183.5 16.5t-200.5 13.5q-210 11 -385 76q-174 63 -174 290z" />
    <glyph glyph-name="V" unicode="V" horiz-adv-x="1676" 
d="M389 1304l450 -1049l448 1049h203l-559 -1304h-186l-559 1304h203z" />
    <glyph glyph-name="W" unicode="W" horiz-adv-x="2410" 
d="M383 1304l362 -1011l360 1011h198l362 -1011l361 1011h198l-466 -1304h-187l-366 1027l-366 -1027h-188l-465 1304h197z" />
    <glyph glyph-name="X" unicode="X" horiz-adv-x="1676" 
d="M186 1304h240l413 -505l411 505h240l-531 -653l531 -651h-239l-412 505l-414 -505h-239l532 651z" />
    <glyph glyph-name="Y" unicode="Y" horiz-adv-x="1676" 
d="M931 507v-507h-186v507l-559 797h228l425 -606l422 606h229z" />
    <glyph glyph-name="Adieresis" unicode="&#xc4;" horiz-adv-x="1872" 
d="M931 1094l-308 -628h616zM531 280l-137 -280h-208l642 1304h207l641 -1304h-207l-137 280h-801zM574 1615h186v-187h-186v187zM1132 1615h186v-187h-186v187z" />
    <glyph glyph-name="Odieresis" unicode="&#xd6;" horiz-adv-x="1676" 
d="M839 1304q268 0 459 -192q192 -191 192 -461t-192 -460q-193 -191 -459 -191q-271 0 -462 191q-191 188 -191 460q0 271 191 461q191 192 462 192zM839 1117q-96 0 -181 -37t-148.5 -100t-100.5 -148t-37 -181q0 -95 37 -180t100.5 -148t148.5 -100t181 -37q94 0 179 37
t148 100.5t100 148t37 179.5t-37 180t-100 148.5t-148 100.5t-179 37zM466 1615h186v-187h-186v187zM1024 1615h186v-187h-186v187z" />
    <glyph glyph-name="Udieresis" unicode="&#xdc;" horiz-adv-x="1676" 
d="M1490 651q0 -270 -192 -460q-193 -191 -459 -191q-271 0 -462 191q-191 190 -191 460v653h186v-653q0 -95 37 -180t100.5 -148t148.5 -100t181 -37q94 0 179 37t148 100.5t100 148t37 179.5v653h187v-653zM466 1579h186v-187h-186v187zM1024 1579h186v-187h-186v187z" />
    <glyph glyph-name="Edieresis" unicode="&#xcb;" horiz-adv-x="1676" 
d="M186 1304h1304v-187h-1118v-372h931v-186h-931v-373h1118v-186h-1304v1304zM466 1696h186v-187h-186v187zM1024 1696h186v-187h-186v187z" />
    <glyph glyph-name="colon" unicode=":" horiz-adv-x="558" 
d="M186 186h186v-186h-186v186zM186 931h186v-186h-186v186z" />
    <glyph glyph-name="semicolon" unicode=";" horiz-adv-x="558" 
d="M186 186h186v-186l-186 -185v371zM186 931h186v-186h-186v186z" />
    <glyph glyph-name="exclam" unicode="!" horiz-adv-x="558" 
d="M186 186h186v-186h-186v186zM186 1304h186v-559l-69 -465h-47l-70 465v559z" />
    <glyph glyph-name="quotedbl" unicode="&#x22;" horiz-adv-x="929" 
d="M559 1304h180v-181l-180 -192v373zM192 1304h180v-181l-180 -192v373z" />
    <glyph glyph-name="hyphen" unicode="-" horiz-adv-x="1124" 
d="M186 373v186h745v-186h-745z" />
    <glyph glyph-name="plus" unicode="+" horiz-adv-x="1114" 
d="M186 559h280v280h185v-280h280v-186h-280v-279h-185v279h-280v186z" />
    <glyph glyph-name="parenright" unicode=")" horiz-adv-x="901" 
d="M186 1304h94q107 -68 192.5 -153t144.5 -179.5t90 -197t31 -206.5t-29 -208t-86.5 -201t-143 -184.5t-199.5 -159.5h-94q91 69 161 155.5t116 181.5t70 198t24 206q0 104 -24 207.5t-70 201t-116 184t-161 155.5z" />
    <glyph glyph-name="parenleft" unicode="(" horiz-adv-x="854" 
d="M738 1304q-95 -72 -164.5 -159t-115.5 -184.5t-68.5 -202t-22.5 -210.5q1 -103 25 -204t70 -195.5t115 -179.5t161 -154h-93q-116 72 -202 159t-143 184.5t-85.5 201.5t-28.5 208t31 207t90 197.5t144 179t194 152.5h93z" />
    <glyph glyph-name="zero" unicode="0" 
d="M745 1304q114 0 216 -52t178 -141t120 -208t44 -252q0 -132 -44 -250.5t-119.5 -207.5t-177 -141t-217.5 -52q-115 0 -217 51.5t-178 140t-120 207t-44 252.5t44 253t120 208t178 140.5t217 51.5zM745 1117q-79 0 -146.5 -37t-118 -100.5t-79.5 -148.5t-29 -180
t29 -179.5t79.5 -148t118 -100.5t146.5 -37q76 0 144.5 37.5t118.5 101t79.5 148t29.5 178.5q0 95 -29.5 179.5t-79.5 148t-118.5 101t-144.5 37.5z" />
    <glyph glyph-name="slash" unicode="/" horiz-adv-x="895" 
d="M551 1304h187l-366 -1489h-186z" />
    <glyph glyph-name="backslash" unicode="\" horiz-adv-x="848" 
d="M372 1304l366 -1489h-187l-365 1489h186z" />
    <glyph glyph-name="bracketleft" unicode="[" horiz-adv-x="558" 
d="M186 1304h280v-187h-94v-1117h94v-185h-280v1489z" />
    <glyph glyph-name="bracketright" unicode="]" horiz-adv-x="558" 
d="M372 1304v-1489h-280v185h94v1117h-94v187h280z" />
    <glyph glyph-name="braceright" unicode="}" horiz-adv-x="827" 
d="M117 1304q172 0 243 -103q35 -51 60 -107.5t44.5 -115.5t36 -116t34.5 -108q17 -52 52.5 -76t88.5 -24v-190q-107 0 -141 -101q-18 -50 -34 -107t-36 -116t-45 -116t-60 -107q-35 -52 -94 -77.5t-149 -24.5v93q53 1 89.5 26.5t61 65.5t41 91.5t28.5 106.5q13 55 25 111.5
t29 105.5t40.5 87.5t58.5 56.5q-36 17 -59.5 55.5t-40.5 87.5t-29 105.5t-25 111.5t-28.5 107t-39.5 92.5t-60.5 65t-89.5 24.5z" />
    <glyph glyph-name="braceleft" unicode="{" horiz-adv-x="746" 
d="M651 1304l-1 -96q-104 0 -149 -88q-23 -43 -40 -95t-31 -107l-27 -110.5l-26 -107.5q-28 -106 -97 -141q34 -18 57 -56.5t39.5 -87.5t28.5 -105.5t25 -111.5q11 -55 27.5 -106.5t41.5 -91.5t62 -65.5t90 -26.5v-93q-175 0 -246 102q-34 50 -59 107t-45 116t-36.5 116
t-33.5 107q-36 101 -139 101v190q52 0 86.5 24t52.5 76q17 50 33.5 107.5t36.5 116.5t45 116.5t59 106.5q70 103 246 103z" />
    <glyph glyph-name="one" unicode="1" horiz-adv-x="913" 
d="M559 0v1079l-373 -261v226l371 260h188v-1304h-186z" />
    <glyph glyph-name="two" unicode="2" 
d="M1303 0h-1117v185l800 441q59 37 95 92t36 121q0 57 -30 108t-81 88.5t-118.5 59.5t-142.5 22q-76 0 -143.5 -22t-119 -60t-81 -89t-29.5 -107h-186q0 94 44 179t120 148.5t178 100.5t217 37q113 0 215 -37t178 -100t120.5 -148t44.5 -180q0 -112 -58.5 -209t-163.5 -163
l-512 -283h734v-184z" />
    <glyph glyph-name="three" unicode="3" 
d="M372 373q0 -37 31 -70.5t83 -59.5t119 -41.5t140 -15.5q71 0 137.5 15t118.5 41t84 59.5t32 71.5q0 37 -32 70.5t-84 59.5t-118.5 41t-137.5 15h-94v186h94q69 0 136 15t119.5 40t84.5 59t32 72q0 37 -31 70.5t-82.5 59.5t-118.5 41t-140 15t-140.5 -15t-119.5 -41
t-82.5 -59.5t-30.5 -70.5h-186q0 77 44 145.5t120 119t178 79.5t217 29q114 0 216 -29t178 -79t120 -118t44 -147q0 -169 -181 -277q-2 0 -4 -3q185 -109 185 -278q0 -80 -44.5 -148t-120 -118t-177.5 -78.5t-216 -28.5q-115 0 -217 29t-178 79t-120 118.5t-44 146.5h186z
" />
    <glyph glyph-name="at" unicode="@" horiz-adv-x="1628" 
d="M797 1025q74 0 141 -36v36h187v-466q0 -16 -0.5 -32t3 -30t13 -22.5t31.5 -8.5q59 0 94 53t37 160q0 101 -39.5 181.5t-104 138t-147 88t-169.5 30.5q-97 0 -182.5 -37t-149 -100t-100.5 -148t-37 -181q0 -97 37 -181t101 -147.5t149.5 -100t181.5 -36.5q76 0 146.5 23
t129.5 66l110 -150q-83 -63 -183.5 -94t-202.5 -31q-272 0 -464 191q-193 190 -193 460t193 463q190 190 464 190q82 0 162 -20.5t152 -59.5t132.5 -94.5t105 -124.5t70 -152t25.5 -175q-1 -92 -24.5 -165.5t-65.5 -125.5t-100 -79.5t-129 -27.5q-115 0 -176 75
q-89 -75 -198 -75q-68 0 -128 29t-104.5 80t-70.5 118.5t-26 143.5q0 77 25.5 144.5t70 118.5t104.5 81t129 30zM891 790q-41 49 -94 49q-30 0 -55.5 -15t-44.5 -41t-30 -59.5t-11 -72.5q0 -36 11 -69.5t30 -59.5t44.5 -41t55.5 -15q29 0 55 15.5t45 41.5t30 59.5t11 68.5
q0 81 -47 139z" />
    <glyph glyph-name="four" unicode="4" 
d="M1117 651v-278h186v-187h-186v-186h-186v186h-745v182l702 936h231l-699 -931h511v278h186z" />
    <glyph glyph-name="five" unicode="5" 
d="M323 343q32 -42 83 -72t110.5 -49t120 -27.5t108.5 -8.5q117 0 244 66q128 66 128 214q0 144 -128 212q-126 67 -244 67q-40 0 -91 -6t-102.5 -18.5t-98 -32t-79.5 -47.5h-188v663h1117v-187h-931v-259q36 18 84 31.5t98.5 23t100.5 14t90 4.5q195 0 378 -118
q180 -116 180 -347q0 -234 -180 -349q-183 -117 -378 -117q-72 0 -152.5 14t-158.5 42t-146.5 72t-113.5 103z" />
    <glyph glyph-name="seven" unicode="7" 
d="M186 931v373h1117v-193l-710 -1111h-221l715 1117h-715v-186h-186z" />
    <glyph glyph-name="eight" unicode="8" 
d="M1082 713q111 -67 166 -141t55 -176q0 -83 -44 -155t-119.5 -126t-177 -84.5t-217.5 -30.5q-117 0 -218.5 30.5t-177 84.5t-119.5 126t-44 155q0 101 55 177t167 140q-128 98 -128 241q0 73 36 136.5t99.5 111.5t148 75t181.5 27q96 0 181 -27t148 -75t100 -111.5
t37 -136.5q0 -143 -129 -241zM955 1059q-85 58 -210 58q-55 0 -106 -13.5t-89.5 -36t-61 -52t-22.5 -61.5q0 -33 23.5 -62.5t62 -51.5t89 -35.5t104.5 -13.5q52 0 102.5 13t89.5 35.5t63.5 52t24.5 62.5q0 58 -70 105zM1023 533q-113 72 -278 72q-75 0 -143 -17t-119 -46
t-81 -66.5t-30 -79.5q0 -44 31 -82t83 -66.5t119.5 -45t139.5 -16.5q71 0 137.5 16t118.5 44.5t84 67t32 82.5q0 74 -94 137z" />
    <glyph glyph-name="six" unicode="6" 
d="M188 697q0 128 45 239t122 193t178 128.5t212 46.5q104 0 186.5 -13t149.5 -42.5t121.5 -75.5t101.5 -111l-152 -108q-34 46 -70.5 77.5t-83 50.5t-108.5 27t-145 8q-72 0 -137 -30t-115.5 -82t-81.5 -123t-36 -152q36 23 83 43.5t96.5 34.5t99 22.5t91.5 8.5
q131 0 234 -30t175.5 -85t110.5 -132.5t38 -172.5q0 -89 -44.5 -165t-120 -132.5t-177.5 -89t-216 -32.5q-94 0 -178.5 28.5t-152 75.5t-114.5 108.5t-66 127.5q-46 162 -46 357zM422 365q24 -42 58 -74.5t75.5 -56.5t89.5 -36t100 -12q73 0 140 18t118.5 49.5t82.5 74.5
t31 91q0 112 -94.5 172t-277.5 60q-66 0 -129.5 -17t-113 -45t-79.5 -63.5t-30 -71.5q0 -43 29 -89z" />
    <glyph glyph-name="nine" unicode="9" 
d="M1304 608q0 -127 -45 -238t-122 -193t-178 -129.5t-212 -47.5q-105 0 -188 13.5t-150.5 42t-121.5 75t-99 112.5l152 107q32 -47 69 -78.5t85 -50.5t109.5 -27t143.5 -8q69 0 132.5 28.5t114 79.5t83.5 122t40 158q-40 -25 -87 -45.5t-95.5 -34t-96.5 -21t-91 -7.5
q-130 0 -234 30t-176 84t-110.5 131.5t-38.5 173.5q0 85 43.5 161.5t119 133.5t178 90.5t218.5 33.5q94 0 178.5 -29t152 -77t114 -109t65.5 -126q47 -168 47 -355zM1071 938q-23 39 -56.5 72t-75 56.5t-90.5 37t-102 13.5q-76 0 -143.5 -18.5t-119 -50.5t-81 -74t-29.5 -89
q0 -58 26 -102t74 -73.5t117.5 -44t155.5 -14.5q51 0 112.5 14.5t114.5 41t89 62.5t36 80q0 40 -28 89z" />
    <glyph glyph-name="numbersign" unicode="#" horiz-adv-x="1111" 
d="M631 1025l-47 -186h89l48 186h192l-48 -186h66v-186h-112l-47 -187h160v-186h-207l-47 -186h-192l48 188h-89l-49 -188h-190l47 189h-67v186h113l46 185h-159v186h207l46 185h192zM538 653l-47 -185h90l46 185h-89z" />
    <glyph glyph-name="asciicircum" unicode="^" horiz-adv-x="961" 
d="M186 745l222 559h174l222 -559h-199l-111 278l-109 -278h-199z" />
    <glyph glyph-name="greater" unicode="&#x3e;" horiz-adv-x="1111" 
d="M186 1003l745 -275v-175l-745 -273v197l442 164l-442 163v199z" />
    <glyph glyph-name="question" unicode="?" horiz-adv-x="1279" 
d="M186 931q0 76 29.5 143.5t79.5 118.5t118.5 81t145.5 30h186q76 0 144.5 -29.5t118.5 -81t79.5 -119t29.5 -143.5q0 -61 -18.5 -115.5t-51 -100t-77.5 -80t-98 -55.5h-1q-59 -23 -93 -70.5t-34 -107.5l1 -122h-186l-1 122q0 57 17.5 111t49.5 100.5t78 82.5t103 58
q56 20 90.5 66.5t34.5 110.5q0 38 -14.5 72t-40 59.5t-59.5 40t-72 14.5h-186q-39 0 -73 -15t-59.5 -41t-40 -59.5t-14.5 -70.5h-186zM559 186h200v-186h-200v186z" />
    <glyph glyph-name="OE" unicode="&#x152;" horiz-adv-x="2093" 
d="M1876 1305v-187h-765v-372h578v-186h-578v-373h765v-186l-1039 -1q-270 0 -460 191q-191 190 -191 462q0 270 191 461q191 190 460 190zM837 1118q-95 0 -179.5 -37t-147.5 -100.5t-100 -148.5t-37 -179q0 -96 37 -180.5t100 -148t147.5 -100.5t179.5 -37h87v931h-87z
" />
    <glyph glyph-name="less" unicode="&#x3c;" horiz-adv-x="1101" 
d="M931 280l-745 274v175l745 274v-198l-442 -164l442 -163v-198z" />
    <glyph glyph-name="comma" unicode="," horiz-adv-x="558" 
d="M186 186h186v-186l-186 -185v371z" />
    <glyph glyph-name="quotesingle" unicode="'" horiz-adv-x="558" 
d="M192 1304h180v-181l-180 -192v373z" />
    <glyph glyph-name="period" unicode="." horiz-adv-x="558" 
d="M186 186h186v-186h-186v186z" />
    <glyph glyph-name="periodcentered" unicode="&#xb7;" horiz-adv-x="558" 
d="M186 931h186v-186h-186v186z" />
    <glyph glyph-name="bar" unicode="|" horiz-adv-x="558" 
d="M186 -200v1504h186v-1504h-186z" />
    <glyph glyph-name="equal" unicode="=" horiz-adv-x="1124" 
d="M186 195v186h745v-186h-745zM186 560v186h745v-186h-745z" />
    <glyph glyph-name="dollar" unicode="$" 
d="M646 0v191q-251 12 -460 90l70 163q168 -57 390 -67v184h-180q-58 0 -109 21t-89 57.5t-60 85t-22 103.5q0 215 202 253q141 27 258 35v188h186v-187q256 -13 471 -90l-69 -162q-177 57 -402 66v-184h193q56 0 107 -21t89 -57.5t60 -85t22 -102.5q0 -216 -203 -255
q-74 -13 -141 -22t-127 -13v-191h-186zM962 380q156 7 156 98q0 83 -93 83h-193v-186q26 2 58.5 3t71.5 2zM527 926q-155 -5 -155 -95q0 -84 94 -84h180v184q-26 -1 -56 -1.5t-63 -3.5z" />
    <glyph glyph-name="underscore" unicode="_" horiz-adv-x="745" 
d="M0 -231h746v-156h-746v156z" />
    <glyph glyph-name="germandbls" unicode="&#xdf;" horiz-adv-x="1628" 
d="M651 839h326q29 0 55 11t44.5 29.5t29.5 43.5t11 55q0 29 -11 54t-30 44t-44.5 30t-54.5 11h-511q-21 0 -38 -7.5t-29.5 -21t-19.5 -30t-7 -33.5v-1025h-186v1025q0 56 22 107t60 89t89 60.5t109 22.5h511q67 0 126.5 -26t103.5 -70t70 -103.5t26 -126.5q0 -136 -95 -231
l-2 -2l2 -2q95 -95 95 -231v-186q0 -67 -26 -126.5t-70 -103.5t-103.5 -70t-126.5 -26h-326v186h326q28 0 53.5 11t44.5 29.5t30.5 44t11.5 55.5v186q0 29 -11 55t-29.5 44.5t-44.5 29t-55 10.5h-326v188z" />
    <glyph glyph-name="uni0025" unicode="%" horiz-adv-x="1466" 
d="M1291 1304l-868 -1304h-224l868 1304h224zM1025 559q57 0 108 -22.5t88.5 -60.5t59.5 -89t22 -107q0 -58 -22 -109t-59.5 -89t-88.5 -60t-108 -22q-58 0 -109 22t-89 60t-60 89t-22 109q0 56 22 107t60 89t89 60.5t109 22.5zM1090 345q-27 28 -65 28q-41 0 -67.5 -28.5
t-26.5 -64.5q0 -40 27 -67t67 -27q37 0 64.5 26.5t27.5 67.5q0 35 -27 65zM466 1304q56 0 107 -22.5t89 -60.5t60.5 -89t22.5 -107q0 -58 -22.5 -109t-60.5 -89t-89 -60t-107 -22q-58 0 -109 22t-89 60t-60 89t-22 109q0 56 22 107t60 89t89 60.5t109 22.5zM531 1090
q-30 27 -65 27q-21 0 -38 -7.5t-29.5 -21t-19.5 -30t-7 -33.5q0 -18 7.5 -35t20 -30t29.5 -21t37 -8q38 0 65.5 27.5t27.5 66.5q0 38 -28 65z" />
    <glyph glyph-name="ampersand" unicode="&#x26;" horiz-adv-x="1497" 
d="M1298 745q0 -284 -190 -497l23 -27q21 -21 37.5 -28t36.5 -7h98v-186h-98q-59 0 -115.5 23.5t-97.5 75.5l-24 27q-185 -126 -410 -126q-76 0 -144.5 29.5t-118.5 80.5t-79.5 119t-29.5 144q0 68 19.5 122t53.5 97.5t79 78.5t97 65l-80 92q-34 39 -54.5 90t-20.5 107
t28 107t77.5 89t118 60.5t147.5 22.5q80 0 148 -22.5t118.5 -60.5t79 -89t28.5 -107q0 -69 -24.5 -121t-65.5 -92t-93.5 -72.5t-109.5 -61.5l252 -289q127 155 127 356h187zM558 186q155 0 288 81l-285 324q-38 -20 -72.5 -43.5t-60.5 -50t-41 -57.5t-15 -67q0 -39 14.5 -73
t39 -59.5t59 -40t73.5 -14.5zM605 822l86 44.5t75 47.5t53 52t20 59q0 17 -16.5 33.5t-42.5 30t-60 21t-69 7.5q-36 0 -69.5 -8t-59.5 -21t-41 -29.5t-15 -33.5t5.5 -36.5t22.5 -39.5z" />
    <glyph glyph-name="asterisk" unicode="*" horiz-adv-x="997" 
d="M559 745h-187l45 201l-147 -142l-93 162l197 61l-197 56l93 162l145 -134l-43 193h187l-50 -199l152 140l93 -162l-196 -56l196 -61l-93 -162l-154 149z" />
    <glyph glyph-name="asciitilde" unicode="~" horiz-adv-x="1628" 
d="M186 1012q0 59 19.5 112t56 93t88 64t114.5 27q52 0 93.5 -17.5t75 -39l59 -38.5t45.5 -17q24 0 41.5 9t29.5 24.5t18 34.5t6 40h186q0 -55 -20 -108.5t-56 -95t-89 -66t-118 -24.5q-50 0 -91 17t-74 38.5l-59 39t-44 17.5q-11 0 -27 -4t-31 -16.5t-26 -33.5t-11 -56
h-186z" />
    <glyph glyph-name="eth" unicode="&#xf0;" horiz-adv-x="1497" 
d="M280 1164h146l-164 140h287l164 -140h404v-186h-185l245 -209l-3 -4q129 -130 129 -299q0 -98 -44.5 -182.5t-120.5 -147.5t-178 -99.5t-215 -36.5q-114 0 -216 36.5t-178 100t-120.5 147.5t-44.5 182q0 87 39.5 168.5t108.5 144.5t163 103.5t204 47.5l-55 48h-366v186z
M1016 657q-108 88 -271 88q-77 0 -144.5 -22.5t-118.5 -60.5t-80.5 -89t-29.5 -107q0 -57 29.5 -108t80.5 -89t119 -60.5t144 -22.5q75 0 142.5 22t118.5 59.5t81 88.5t30 110q0 109 -101 191z" />
    <glyph glyph-name="tilde" unicode="&#x2dc;" horiz-adv-x="1628" 
d="M186 1012q0 59 19.5 112t56 93t88 64t114.5 27q52 0 93.5 -17.5t75 -39l59 -38.5t45.5 -17q24 0 41.5 9t29.5 24.5t18 34.5t6 40h186q0 -55 -20 -108.5t-56 -95t-89 -66t-118 -24.5q-50 0 -91 17t-74 38.5l-59 39t-44 17.5q-11 0 -27 -4t-31 -16.5t-26 -33.5t-11 -56
h-186z" />
    <glyph glyph-name="ntilde" unicode="&#xf1;" 
d="M745 931q114 0 216 -37t177.5 -100t120 -148t44.5 -180v-466h-186v466q0 58 -37.5 109t-93 89t-121 59.5t-120.5 21.5q-261 0 -373 -95v-651h-186v932h186v-62q29 13 78 25t103.5 20t105.5 12.5t86 4.5zM328 1056q0 59 19.5 112t56 93t88 64t114.5 27q52 0 93.5 -17.5
t75 -39l59 -38.5t45.5 -17q24 0 41.5 9t29.5 24.5t18 34.5t6 40h186q0 -55 -20 -108.5t-56 -95t-89 -66t-118 -24.5q-50 0 -91 17t-74 38.5l-59 39t-44 17.5q-11 0 -27 -4t-31 -16.5t-26 -33.5t-11 -56h-186z" />
    <glyph glyph-name="Ntilde" unicode="&#xd1;" horiz-adv-x="1676" 
d="M1303 1304h187v-1304h-187l-931 1027v-1027h-186v1304h186l931 -1027v1027zM427 1409q0 59 19.5 112t56 93t88 64t114.5 27q52 0 93.5 -17.5t75 -39l59 -38.5t45.5 -17q24 0 41.5 9t29.5 24.5t18 34.5t6 40h186q0 -55 -20 -108.5t-56 -95t-89 -66t-118 -24.5
q-50 0 -91 17t-74 38.5l-59 39t-44 17.5q-11 0 -27 -4t-31 -16.5t-26 -33.5t-11 -56h-186z" />
    <glyph glyph-name="degree" unicode="&#xb0;" horiz-adv-x="934" 
d="M466 1304q56 0 107 -22.5t89 -60.5t60.5 -89t22.5 -107q0 -58 -22.5 -109t-60.5 -89t-89 -60t-107 -22q-58 0 -109 22t-89 60t-60 89t-22 109q0 56 22 107t60 89t89 60.5t109 22.5zM531 1090q-30 27 -65 27q-21 0 -38 -7.5t-29.5 -21t-19.5 -30t-7 -33.5q0 -18 7.5 -35
t20 -30t29.5 -21t37 -8q38 0 65.5 27.5t27.5 66.5q0 38 -28 65z" />
    <glyph glyph-name="exclamdown" unicode="&#xa1;" horiz-adv-x="558" 
d="M372 1118h-186v186h186v-186zM372 0h-186v559l69 466h46l71 -466v-559z" />
    <glyph glyph-name="Eth" unicode="&#xd0;" horiz-adv-x="1676" 
d="M103 576v186h83v542h653q268 0 459 -192q192 -191 192 -461t-192 -460q-190 -191 -459 -191h-653v576h-83zM839 186q94 0 179 37t148 100.5t100 148t37 179.5t-37 180t-100 148.5t-148 100.5t-179 37h-467v-355h476v-186h-476v-390h467z" />
    <glyph glyph-name="Thorn" unicode="&#xde;" horiz-adv-x="1676" 
d="M186 0v1304h186v-282h745q76 0 143.5 -29.5t119 -80.5t81 -119t29.5 -144t-29.5 -144t-81 -118.5t-119 -80t-143.5 -29.5h-745v-277h-186zM1117 463q38 0 72 15t59 40t40 59t15 72t-15 71.5t-40.5 59t-59 40.5t-71.5 15h-745v-372h745z" />
    <glyph glyph-name="Aring" unicode="&#xc5;" horiz-adv-x="1872" 
d="M931 1094l-308 -628h616zM531 280l-137 -280h-208l642 1304h207l641 -1304h-207l-137 280h-801zM924 1964q57 0 107.5 -22.5t89 -61t61 -89t22.5 -107.5q0 -58 -22.5 -108.5t-61 -88.5t-89 -60t-107.5 -22q-58 0 -108.5 22t-89 60t-60 88.5t-21.5 108.5q0 57 21.5 107.5
t60 89t89 61t108.5 22.5zM990 1750q-30 27 -66 27q-21 0 -37.5 -7.5t-29.5 -21t-19.5 -30.5t-6.5 -34t7.5 -34.5t20 -30t29 -20.5t36.5 -8q38 0 66 27.5t28 65.5t-28 66z" />
    <glyph glyph-name="aring" unicode="&#xe5;" 
d="M466 0q-58 0 -109 22t-89 60t-60 89t-22 109q0 56 22 107t60 89t89 60.5t109 22.5h373q92 0 92 92q0 94 -92 94h-373q-94 0 -94 -94h-186q0 57 22 108t60 89t89 60.5t109 22.5h373q56 0 107 -22.5t89 -60.5t60 -89t22 -108v-371q0 -94 94 -94h92v-186h-92q-108 0 -186 72
q-82 -72 -186 -72h-373zM931 388q-40 -15 -92 -15h-373q-94 0 -94 -93q0 -94 94 -94h373q92 0 92 94v108zM647 1599q56 0 107 -22.5t89 -61t60.5 -89t22.5 -107.5q0 -58 -22.5 -108.5t-60.5 -89t-89 -60t-107 -21.5q-58 0 -109 21.5t-89 60t-60 89t-22 108.5q0 57 22 107.5
t60 89t89 61t109 22.5zM713 1385q-30 27 -66 27q-21 0 -37.5 -7.5t-29.5 -21t-20 -30.5t-7 -34t7.5 -34.5t20.5 -30t29.5 -20.5t36.5 -8q38 0 65.5 27.5t27.5 65.5t-27 66z" />
    <glyph glyph-name="ae" unicode="&#xe6;" horiz-adv-x="2200" 
d="M1481 931q114 0 215.5 -37t177.5 -100t120.5 -148t44.5 -180v-93h-909q18 -40 52.5 -75t80.5 -59.5t101.5 -38.5t116.5 -14q187 0 298 112l165 -92q-76 -95 -197 -150.5t-266 -55.5q-232 0 -396 136q-3 3 -4 3.5t-2 1.5q-39 -69 -103.5 -105t-136.5 -36h-373
q-58 0 -109 22t-89 60t-60 89t-22 109q0 56 22 107t60 89t89 60.5t109 22.5h373q92 0 92 92q0 94 -92 94h-373q-94 0 -94 -94h-186q0 57 22 108t60 89t89 60.5t109 22.5h373q76 0 137 -36t104 -105l5 5q164 136 396 136zM839 373h-373q-94 0 -94 -93q0 -94 94 -94h373
q92 0 92 94v95l-2 12q-42 -14 -90 -14zM1832 559q-20 40 -54.5 74.5t-80.5 59t-101 38.5t-115 14t-115.5 -14t-102 -38.5t-81 -59t-52.5 -74.5h702z" />
    <glyph glyph-name="Euro" unicode="&#x20ac;" horiz-adv-x="1676" 
d="M53 385l87 186h51q-3 19 -4 39.5t-1 40.5q0 50 7 99h-133l88 186h105q46 87 114 156t150 115.5t176 71.5t192 25q95 0 183.5 -23.5t166 -66.5t142.5 -102.5t111 -130.5l-164 -90q-34 50 -80.5 92t-103.5 72t-121.5 46t-133.5 16q-123 0 -226 -45t-181 -136h549l-88 -186
h-557q-10 -48 -10 -99q0 -41 7 -80h476l-88 -186h-304q80 -102 187 -150.5t235 -48.5q70 0 135 16.5t121.5 47t103 72.5t80.5 93l164 -89q-45 -73 -109 -133t-142 -103t-167.5 -66.5t-185.5 -23.5q-101 0 -197.5 26t-180.5 75.5t-151.5 121.5t-110.5 162h-192z" />
    <glyph glyph-name="oe" unicode="&#x153;" horiz-adv-x="2442" 
d="M1676 931q114 0 216 -37t177.5 -100t120 -148t44.5 -180v-93h-909q18 -40 53 -75t80.5 -59.5t101 -38.5t116.5 -14q187 0 298 112l165 -92q-76 -95 -196.5 -150.5t-266.5 -55.5q-140 0 -261 51t-206 156q-84 -105 -204 -156t-260 -51q-114 0 -216 36.5t-178 100
t-120.5 147.5t-44.5 182q0 97 44.5 181t120.5 147.5t178 100t216 36.5q140 0 260 -51t204 -156q85 105 206 156t261 51zM745 745q-76 0 -143.5 -22t-118.5 -59.5t-81 -88.5t-30 -109q0 -59 30 -110t81 -88.5t118.5 -59.5t143.5 -22q75 0 142.5 22t118.5 60t81 89t30 109
q0 57 -30 108t-81 89t-118.5 60t-142.5 22zM2027 559q-19 40 -54 74.5t-81 59t-101 38.5t-115 14t-115.5 -14t-101.5 -38.5t-81 -59t-53 -74.5h702z" />
    <glyph glyph-name="AE" unicode="&#xc6;" horiz-adv-x="2415" 
d="M828 1304h1415v-187h-902v-372h715v-186h-715v-373h902v-186h-1088v280h-624l-137 -280h-208zM623 466h532v651h-212z" />
    <glyph glyph-name="ellipsis" unicode="&#x2026;" horiz-adv-x="1674" 
d="M186 186h186v-186h-186v186zM744 186h186v-186h-186v186zM1302 186h186v-186h-186v186z" />
    <glyph glyph-name="ccedilla" unicode="&#xe7;" horiz-adv-x="1394" 
d="M745 931q73 0 140 -14.5t126 -41.5t109 -65t88 -85l-165 -92q-111 112 -298 112q-76 0 -143.5 -22t-118.5 -59.5t-81 -88.5t-30 -109q0 -59 30 -110t81 -88.5t118.5 -59.5t143.5 -22q187 0 298 112l165 -92q-62 -77 -155 -129t-205 -70v-155l-186 -185v338
q-101 10 -188 51.5t-151 104t-100.5 141t-36.5 164.5q0 97 44.5 181t120.5 147.5t178 100t216 36.5z" />
    <glyph glyph-name="Ccedilla" unicode="&#xc7;" horiz-adv-x="1676" 
d="M885 1304q95 0 183.5 -23.5t166 -66.5t142.5 -102.5t111 -130.5l-164 -90q-34 50 -80.5 92t-103.5 72t-121.5 46t-133.5 16q-106 0 -199 -37t-163 -100t-110.5 -148t-40.5 -181q0 -95 40.5 -180t110.5 -148t163 -100t199 -37q70 0 135 16.5t121.5 47t103 72.5t80.5 93
l164 -89q-39 -64 -93.5 -118t-121 -96.5t-143 -70t-160.5 -36.5v-153l-186 -185v339q-127 15 -236.5 72.5t-190.5 145t-126.5 197.5t-45.5 230q0 268 204 461q203 192 495 192z" />
    <glyph glyph-name="Atilde" unicode="&#xc3;" horiz-adv-x="1872" 
d="M931 1094l-308 -628h616zM531 280l-137 -280h-208l642 1304h207l641 -1304h-207l-137 280h-801zM520 1394q0 59 19.5 112t56 93t88 64t114.5 27q52 0 93.5 -17.5t75 -39l59 -38.5t45.5 -17q24 0 41.5 9t29.5 24.5t18 34.5t6 40h186q0 -55 -20 -108.5t-56 -95t-89 -66
t-118 -24.5q-50 0 -91 17t-74 38.5l-59 39t-44 17.5q-11 0 -27 -4t-31 -16.5t-26 -33.5t-11 -56h-186z" />
    <glyph glyph-name="atilde" unicode="&#xe3;" 
d="M466 0q-58 0 -109 22t-89 60t-60 89t-22 109q0 56 22 107t60 89t89 60.5t109 22.5h373q92 0 92 92q0 94 -92 94h-373q-94 0 -94 -94h-186q0 57 22 108t60 89t89 60.5t109 22.5h373q56 0 107 -22.5t89 -60.5t60 -89t22 -108v-371q0 -94 94 -94h92v-186h-92q-108 0 -186 72
q-82 -72 -186 -72h-373zM931 388q-40 -15 -92 -15h-373q-94 0 -94 -93q0 -94 94 -94h373q92 0 92 94v108zM328 1012q0 59 19.5 112t56 93t88 64t114.5 27q52 0 93.5 -17.5t75 -39l59 -38.5t45.5 -17q24 0 41.5 9t29.5 24.5t18 34.5t6 40h186q0 -55 -20 -108.5t-56 -95
t-89 -66t-118 -24.5q-50 0 -91 17t-74 38.5l-59 39t-44 17.5q-11 0 -27 -4t-31 -16.5t-26 -33.5t-11 -56h-186z" />
    <glyph glyph-name="Oslash" unicode="&#xd8;" horiz-adv-x="1676" 
d="M1348 1310l-100 -151q122 -99 182 -227.5t60 -280.5q0 -270 -192 -460q-190 -191 -459 -191q-173 0 -312 76l-48 -70h-224l123 183l-1 2q-191 190 -191 460q0 271 191 461q191 192 462 192q132 0 249 -48l36 54h224zM839 186q94 0 179 37t148 100.5t100 148t37 179.5
q0 104 -39.5 193t-119.5 159l-513 -771q91 -46 208 -46zM839 1117q-96 0 -181 -37t-148.5 -100t-100.5 -148t-37 -181q0 -174 111 -302l498 746q-65 22 -142 22z" />
    <glyph glyph-name="oslash" unicode="&#xf8;" 
d="M1250 949l-125 -143q90 -69 134 -155.5t44 -184.5q0 -96 -44.5 -181t-120 -148t-177.5 -100t-216 -37q-155 0 -273 57l-49 -57h-224l131 151q-144 132 -144 315q0 97 44.5 181t120.5 147.5t178 100t216 36.5q121 0 230 -40l51 58h224zM745 186q75 0 142.5 22t118.5 60
t81 89t30 109q0 115 -110 197l-4 3l-401 -460q69 -20 143 -20zM745 745q-76 0 -143.5 -22t-118.5 -59.5t-81 -88.5t-30 -109q0 -101 81 -175l387 445q-23 4 -46.5 6.5t-48.5 2.5z" />
    <glyph glyph-name="otilde" unicode="&#xf5;" 
d="M745 931q114 0 216 -37t177.5 -100t120 -148t44.5 -180q0 -96 -44.5 -181t-120 -148t-177.5 -100t-216 -37t-216 36.5t-178 100t-120.5 147.5t-44.5 182q0 97 44.5 181t120.5 147.5t178 100t216 36.5zM745 745q-76 0 -143.5 -22t-118.5 -59.5t-81 -88.5t-30 -109
q0 -59 30 -110t81 -88.5t118.5 -59.5t143.5 -22q75 0 142.5 22t118.5 60t81 89t30 109q0 57 -30 108t-81 89t-118.5 60t-142.5 22zM328 1012q0 59 19.5 112t56 93t88 64t114.5 27q52 0 93.5 -17.5t75 -39l59 -38.5t45.5 -17q24 0 41.5 9t29.5 24.5t18 34.5t6 40h186
q0 -55 -20 -108.5t-56 -95t-89 -66t-118 -24.5q-50 0 -91 17t-74 38.5l-59 39t-44 17.5q-11 0 -27 -4t-31 -16.5t-26 -33.5t-11 -56h-186z" />
    <glyph glyph-name="Otilde" unicode="&#xd5;" horiz-adv-x="1676" 
d="M839 1304q268 0 459 -192q192 -191 192 -461t-192 -460q-193 -191 -459 -191q-271 0 -462 191q-191 188 -191 460q0 271 191 461q191 192 462 192zM839 1117q-96 0 -181 -37t-148.5 -100t-100.5 -148t-37 -181q0 -95 37 -180t100.5 -148t148.5 -100t181 -37q94 0 179 37
t148 100.5t100 148t37 179.5t-37 180t-100 148.5t-148 100.5t-179 37zM416 1371q0 59 19.5 112t56 93t88 64t114.5 27q52 0 93.5 -17.5t75 -39l59 -38.5t45.5 -17q24 0 41.5 9t29.5 24.5t18 34.5t6 40h186q0 -55 -20 -108.5t-56 -95t-89 -66t-118 -24.5q-50 0 -91 17
t-74 38.5l-59 39t-44 17.5q-11 0 -27 -4t-31 -16.5t-26 -33.5t-11 -56h-186z" />
    <glyph glyph-name="multiply" unicode="&#xd7;" horiz-adv-x="1105" 
d="M362 795l197 -198l198 198l131 -132l-197 -197l197 -198l-131 -132l-198 198l-197 -198l-132 132l197 198l-197 197z" />
    <glyph glyph-name="perthousand" unicode="&#x2030;" horiz-adv-x="2050" 
d="M1291 1304l-868 -1304h-224l868 1304h224zM1646 560q58 0 108.5 -22.5t88.5 -60.5t59.5 -89t21.5 -107q0 -58 -21.5 -109t-59.5 -89t-88.5 -60t-108.5 -22t-108.5 22t-89 60t-60.5 89t-22 109q0 56 22 107t60.5 89t89 60.5t108.5 22.5zM1712 347q-28 27 -66 27
q-40 0 -67 -28t-27 -65q0 -40 27.5 -67t66.5 -27q37 0 64.5 26.5t27.5 67.5q0 35 -26 66zM466 1304q56 0 107 -22.5t89 -60.5t60.5 -89t22.5 -107q0 -58 -22.5 -109t-60.5 -89t-89 -60t-107 -22q-58 0 -109 22t-89 60t-60 89t-22 109q0 56 22 107t60 89t89 60.5t109 22.5z
M531 1090q-30 27 -65 27q-21 0 -38 -7.5t-29.5 -21t-19.5 -30t-7 -33.5q0 -18 7.5 -35t20 -30t29.5 -21t37 -8q38 0 65.5 27.5t27.5 66.5q0 19 -7.5 34.5t-20.5 30.5zM1025 559q57 0 108 -22.5t88.5 -60.5t59.5 -89t22 -107q0 -58 -22 -109t-59.5 -89t-88.5 -60t-108 -22
q-58 0 -109 22t-89 60t-60 89t-22 109q0 56 22 107t60 89t89 60.5t109 22.5zM1090 345q-27 28 -65 28q-41 0 -67.5 -28.5t-26.5 -64.5q0 -40 27 -67t67 -27q37 0 64.5 26.5t27.5 67.5q0 35 -27 65z" />
    <glyph glyph-name="grave" unicode="`" horiz-adv-x="1972" 
d="M79 1698h175l139 -312h-176z" />
    <glyph glyph-name="Agrave" unicode="&#xc0;" horiz-adv-x="1872" 
d="M931 1094l-308 -628h616zM531 280l-137 -280h-208l642 1304h207l641 -1304h-207l-137 280h-801zM779 1698h175l139 -312h-176z" />
    <glyph glyph-name="yen" unicode="&#xa5;" horiz-adv-x="1676" 
d="M466 195v186h279v126l-38 53h-241v186h110l-390 558h228l390 -558h68l389 558h229l-391 -558h112v-186h-243l-37 -53v-126h280v-186h-280v-195h-186v195h-279z" />
    <glyph glyph-name="Egrave" unicode="&#xc8;" horiz-adv-x="1676" 
d="M186 1304h1304v-187h-1118v-372h931v-186h-931v-373h1118v-186h-1304v1304zM681 1698h175l139 -312h-176z" />
    <glyph glyph-name="Igrave" unicode="&#xcc;" horiz-adv-x="558" 
d="M186 0v1304h186v-1304h-186zM122 1698h175l139 -312h-176z" />
    <glyph glyph-name="Ograve" unicode="&#xd2;" horiz-adv-x="1676" 
d="M839 1304q268 0 459 -192q192 -191 192 -461t-192 -460q-193 -191 -459 -191q-271 0 -462 191q-191 188 -191 460q0 271 191 461q191 192 462 192zM839 1117q-96 0 -181 -37t-148.5 -100t-100.5 -148t-37 -181q0 -95 37 -180t100.5 -148t148.5 -100t181 -37q94 0 179 37
t148 100.5t100 148t37 179.5t-37 180t-100 148.5t-148 100.5t-179 37zM681 1698h175l139 -312h-176z" />
    <glyph glyph-name="Ugrave" unicode="&#xd9;" horiz-adv-x="1676" 
d="M1490 651q0 -270 -192 -460q-193 -191 -459 -191q-271 0 -462 191q-191 190 -191 460v653h186v-653q0 -95 37 -180t100.5 -148t148.5 -100t181 -37q94 0 179 37t148 100.5t100 148t37 179.5v653h187v-653zM681 1698h175l139 -312h-176z" />
    <glyph glyph-name="acute" unicode="&#xb4;" horiz-adv-x="1972" 
d="M332 1386h-176l139 312h175z" />
    <glyph glyph-name="Oacute" unicode="&#xd3;" horiz-adv-x="1676" 
d="M839 1304q268 0 459 -192q192 -191 192 -461t-192 -460q-193 -191 -459 -191q-271 0 -462 191q-191 188 -191 460q0 271 191 461q191 192 462 192zM839 1117q-96 0 -181 -37t-148.5 -100t-100.5 -148t-37 -181q0 -95 37 -180t100.5 -148t148.5 -100t181 -37q94 0 179 37
t148 100.5t100 148t37 179.5t-37 180t-100 148.5t-148 100.5t-179 37zM934 1386h-176l139 312h175z" />
    <glyph glyph-name="Uacute" unicode="&#xda;" horiz-adv-x="1676" 
d="M1490 651q0 -270 -192 -460q-193 -191 -459 -191q-271 0 -462 191q-191 190 -191 460v653h186v-653q0 -95 37 -180t100.5 -148t148.5 -100t181 -37q94 0 179 37t148 100.5t100 148t37 179.5v653h187v-653zM856 1386h-176l139 312h175z" />
    <glyph glyph-name="Yacute" unicode="&#xdd;" horiz-adv-x="1676" 
d="M931 507v-507h-186v507l-559 797h228l425 -606l422 606h229zM856 1386h-176l139 312h175z" />
    <glyph glyph-name="Eacute" unicode="&#xc9;" horiz-adv-x="1676" 
d="M186 1304h1304v-187h-1118v-372h931v-186h-931v-373h1118v-186h-1304v1304zM856 1386h-176l139 312h175z" />
    <glyph glyph-name="Aacute" unicode="&#xc1;" horiz-adv-x="1872" 
d="M931 1094l-308 -628h616zM531 280l-137 -280h-208l642 1304h207l641 -1304h-207l-137 280h-801zM955 1386h-176l139 312h175z" />
    <glyph glyph-name="Idieresis" unicode="&#xcf;" horiz-adv-x="558" 
d="M186 0v1304h186v-1304h-186zM-2 1591h186v-188h-186v188zM375 1591h186v-188h-186v188z" />
    <glyph glyph-name="Iacute" unicode="&#xcd;" horiz-adv-x="558" 
d="M186 0v1304h186v-1304h-186zM301 1386h-176l139 312h175z" />
    <glyph glyph-name="agrave" unicode="&#xe0;" 
d="M466 0q-58 0 -109 22t-89 60t-60 89t-22 109q0 56 22 107t60 89t89 60.5t109 22.5h373q92 0 92 92q0 94 -92 94h-373q-94 0 -94 -94h-186q0 57 22 108t60 89t89 60.5t109 22.5h373q56 0 107 -22.5t89 -60.5t60 -89t22 -108v-371q0 -94 94 -94h92v-186h-92q-108 0 -186 72
q-82 -72 -186 -72h-373zM931 388q-40 -15 -92 -15h-373q-94 0 -94 -93q0 -94 94 -94h373q92 0 92 94v108zM486 1320h175l139 -312h-176z" />
    <glyph glyph-name="aacute" unicode="&#xe1;" 
d="M466 0q-58 0 -109 22t-89 60t-60 89t-22 109q0 56 22 107t60 89t89 60.5t109 22.5h373q92 0 92 92q0 94 -92 94h-373q-94 0 -94 -94h-186q0 57 22 108t60 89t89 60.5t109 22.5h373q56 0 107 -22.5t89 -60.5t60 -89t22 -108v-371q0 -94 94 -94h92v-186h-92q-108 0 -186 72
q-82 -72 -186 -72h-373zM931 388q-40 -15 -92 -15h-373q-94 0 -94 -93q0 -94 94 -94h373q92 0 92 94v108zM785 1061h-176l139 312h175z" />
    <glyph glyph-name="egrave" unicode="&#xe8;" 
d="M745 931q114 0 216 -37t177.5 -100t120 -148t44.5 -180v-93h-909q18 -40 53 -75t80.5 -59.5t101 -38.5t116.5 -14q187 0 298 112l165 -92q-76 -95 -196.5 -150.5t-266.5 -55.5q-114 0 -216 36.5t-178 100t-120.5 147.5t-44.5 182q0 97 44.5 181t120.5 147.5t178 100
t216 36.5zM1096 559q-19 40 -54 74.5t-81 59t-101 38.5t-115 14t-115.5 -14t-101.5 -38.5t-81 -59t-53 -74.5h702zM532 1362h175l139 -312h-176z" />
    <glyph glyph-name="eacute" unicode="&#xe9;" 
d="M745 931q114 0 216 -37t177.5 -100t120 -148t44.5 -180v-93h-909q18 -40 53 -75t80.5 -59.5t101 -38.5t116.5 -14q187 0 298 112l165 -92q-76 -95 -196.5 -150.5t-266.5 -55.5q-114 0 -216 36.5t-178 100t-120.5 147.5t-44.5 182q0 97 44.5 181t120.5 147.5t178 100
t216 36.5zM1096 559q-19 40 -54 74.5t-81 59t-101 38.5t-115 14t-115.5 -14t-101.5 -38.5t-81 -59t-53 -74.5h702zM833 1055h-176l139 312h175z" />
    <glyph glyph-name="mu" unicode="&#xb5;" 
d="M1398 199v-186q-117 0 -198 81l-1 1l-82 -34q-29 -14 -77.5 -25.5t-103 -19.5t-106 -12.5t-86.5 -4.5q-216 0 -372 118v-497h-186v1310h186v-466q0 -59 37 -109.5t93 -88.5t121 -59.5t121 -21.5q261 0 373 95v651h186l-1 -7h2v-633q0 -92 94 -92z" />
    <glyph glyph-name="circumflex" unicode="&#x2c6;" horiz-adv-x="956" 
d="M173 1028l230 276h175l213 -276h-198l-110 94l-111 -94h-199z" />
    <glyph glyph-name="Acircumflex" unicode="&#xc2;" horiz-adv-x="1872" 
d="M931 1094l-308 -628h616zM531 280l-137 -280h-208l642 1304h207l641 -1304h-207l-137 280h-801zM626.385 1374.07l227.852 272.53h173.366l211.011 -272.53h-196.151l-108.973 92.8184l-109.963 -92.8184h-197.142z" />
    <glyph glyph-name="Ecircumflex" unicode="&#xca;" horiz-adv-x="1676" 
d="M186 1304h1304v-187h-1118v-372h931v-186h-931v-373h1118v-186h-1304v1304zM572 1405l230 276h175l213 -276h-198l-110 94l-111 -94h-199z" />
    <glyph glyph-name="Icircumflex" unicode="&#xce;" horiz-adv-x="558" 
d="M186 0v1304h186v-1304h-186zM-28 1390l230 276h175l213 -276h-198l-110 94l-111 -94h-199z" />
    <glyph glyph-name="Ocircumflex" unicode="&#xd4;" horiz-adv-x="1676" 
d="M839 1304q268 0 459 -192q192 -191 192 -461t-192 -460q-193 -191 -459 -191q-271 0 -462 191q-191 188 -191 460q0 271 191 461q191 192 462 192zM839 1117q-96 0 -181 -37t-148.5 -100t-100.5 -148t-37 -181q0 -95 37 -180t100.5 -148t148.5 -100t181 -37q94 0 179 37
t148 100.5t100 148t37 179.5t-37 180t-100 148.5t-148 100.5t-179 37zM511 1353l230 276h175l213 -276h-198l-110 94l-111 -94h-199z" />
    <glyph glyph-name="Ucircumflex" unicode="&#xdb;" horiz-adv-x="1676" 
d="M1490 651q0 -270 -192 -460q-193 -191 -459 -191q-271 0 -462 191q-191 190 -191 460v653h186v-653q0 -95 37 -180t100.5 -148t148.5 -100t181 -37q94 0 179 37t148 100.5t100 148t37 179.5v653h187v-653zM511 1411l230 276h175l213 -276h-198l-110 94l-111 -94h-199z
" />
    <glyph glyph-name="acircumflex" unicode="&#xe2;" 
d="M466 0q-58 0 -109 22t-89 60t-60 89t-22 109q0 56 22 107t60 89t89 60.5t109 22.5h373q92 0 92 92q0 94 -92 94h-373q-94 0 -94 -94h-186q0 57 22 108t60 89t89 60.5t109 22.5h373q56 0 107 -22.5t89 -60.5t60 -89t22 -108v-371q0 -94 94 -94h92v-186h-92q-108 0 -186 72
q-82 -72 -186 -72h-373zM931 388q-40 -15 -92 -15h-373q-94 0 -94 -93q0 -94 94 -94h373q92 0 92 94v108zM381 1028l230 276h175l213 -276h-198l-110 94l-111 -94h-199z" />
    <glyph glyph-name="ograve" unicode="&#xf2;" 
d="M745 931q114 0 216 -37t177.5 -100t120 -148t44.5 -180q0 -96 -44.5 -181t-120 -148t-177.5 -100t-216 -37t-216 36.5t-178 100t-120.5 147.5t-44.5 182q0 97 44.5 181t120.5 147.5t178 100t216 36.5zM745 745q-76 0 -143.5 -22t-118.5 -59.5t-81 -88.5t-30 -109
q0 -59 30 -110t81 -88.5t118.5 -59.5t143.5 -22q75 0 142.5 22t118.5 60t81 89t30 109q0 57 -30 108t-81 89t-118.5 60t-142.5 22zM539 1369h175l139 -312h-176z" />
    <glyph glyph-name="oacute" unicode="&#xf3;" 
d="M745 931q114 0 216 -37t177.5 -100t120 -148t44.5 -180q0 -96 -44.5 -181t-120 -148t-177.5 -100t-216 -37t-216 36.5t-178 100t-120.5 147.5t-44.5 182q0 97 44.5 181t120.5 147.5t178 100t216 36.5zM745 745q-76 0 -143.5 -22t-118.5 -59.5t-81 -88.5t-30 -109
q0 -59 30 -110t81 -88.5t118.5 -59.5t143.5 -22q75 0 142.5 22t118.5 60t81 89t30 109q0 57 -30 108t-81 89t-118.5 60t-142.5 22zM786 1081h-176l139 312h175z" />
    <glyph glyph-name="ocircumflex" unicode="&#xf4;" 
d="M745 931q114 0 216 -37t177.5 -100t120 -148t44.5 -180q0 -96 -44.5 -181t-120 -148t-177.5 -100t-216 -37t-216 36.5t-178 100t-120.5 147.5t-44.5 182q0 97 44.5 181t120.5 147.5t178 100t216 36.5zM745 745q-76 0 -143.5 -22t-118.5 -59.5t-81 -88.5t-30 -109
q0 -59 30 -110t81 -88.5t118.5 -59.5t143.5 -22q75 0 142.5 22t118.5 60t81 89t30 109q0 57 -30 108t-81 89t-118.5 60t-142.5 22zM435 1028l230 276h175l213 -276h-198l-110 94l-111 -94h-199z" />
    <glyph glyph-name="ugrave" unicode="&#xf9;" 
d="M744 -1q-113 0 -215 36.5t-178 100t-120.5 147.5t-44.5 181v466h186v-466q0 -59 37 -109.5t93 -88.5t121 -59.5t121 -21.5q261 0 373 95v651h186v-932h-186v62q-29 -14 -77.5 -25.5t-103 -19.5t-106 -12.5t-86.5 -4.5zM521 1374h175l139 -312h-176z" />
    <glyph glyph-name="uacute" unicode="&#xfa;" 
d="M744 -1q-113 0 -215 36.5t-178 100t-120.5 147.5t-44.5 181v466h186v-466q0 -59 37 -109.5t93 -88.5t121 -59.5t121 -21.5q261 0 373 95v651h186v-932h-186v62q-29 -14 -77.5 -25.5t-103 -19.5t-106 -12.5t-86.5 -4.5zM787 1068h-176l139 312h175z" />
    <glyph glyph-name="ucircumflex" unicode="&#xfb;" 
d="M744 -1q-113 0 -215 36.5t-178 100t-120.5 147.5t-44.5 181v466h186v-466q0 -59 37 -109.5t93 -88.5t121 -59.5t121 -21.5q261 0 373 95v651h186v-932h-186v62q-29 -14 -77.5 -25.5t-103 -19.5t-106 -12.5t-86.5 -4.5zM435 1028l230 276h175l213 -276h-198l-110 94
l-111 -94h-199z" />
    <glyph glyph-name="yacute" unicode="&#xfd;" 
d="M394 931l351 -720l351 720h207l-534 -1094q-101 -209 -335 -209h-154v187h154q117 0 168 104l39 81l-455 931h208zM823 1055h-176l139 312h175z" />
    <glyph glyph-name="ecircumflex" unicode="&#xea;" 
d="M745 931q114 0 216 -37t177.5 -100t120 -148t44.5 -180v-93h-909q18 -40 53 -75t80.5 -59.5t101 -38.5t116.5 -14q187 0 298 112l165 -92q-76 -95 -196.5 -150.5t-266.5 -55.5q-114 0 -216 36.5t-178 100t-120.5 147.5t-44.5 182q0 97 44.5 181t120.5 147.5t178 100
t216 36.5zM1096 559q-19 40 -54 74.5t-81 59t-101 38.5t-115 14t-115.5 -14t-101.5 -38.5t-81 -59t-53 -74.5h702zM435 1028l230 276h175l213 -276h-198l-110 94l-111 -94h-199z" />
    <glyph glyph-name="igrave" unicode="&#xec;" horiz-adv-x="558" 
d="M186 931h186v-931h-186v931zM44 1457h175l139 -312h-175z" />
    <glyph glyph-name="iacute" unicode="&#xed;" horiz-adv-x="558" 
d="M373 931h-186v-931h186v931zM377 1145h-176l139 312h175z" />
    <glyph glyph-name="icircumflex" unicode="&#xee;" horiz-adv-x="558" 
d="M186 931h186v-931h-186v931zM-30 1028l216 276h188l214 -276h-199l-109 94l-111 -94h-199z" />
    <glyph glyph-name="idieresis" unicode="&#xef;" horiz-adv-x="558" 
d="M186 931h186v-931h-186v931zM55 1304h131l55 -187h-186v187zM335 1304h186v-187h-186v187z" />
    <glyph glyph-name="divide" unicode="&#xf7;" horiz-adv-x="558" 
d="M186 499h186v-186h-186v186zM186 1244h186v-186h-186v186z" />
    <glyph glyph-name="questiondown" unicode="&#xbf;" horiz-adv-x="1279" 
d="M1117 373q0 -76 -29.5 -143.5t-80.5 -118.5t-118.5 -81t-144.5 -30h-186q-76 0 -144.5 29.5t-118.5 80.5t-79.5 119t-29.5 144q0 60 18.5 114.5t51 100t77.5 80.5t98 56h1q28 11 51.5 29.5t40.5 41.5t26 50t9 57l-1 123h186l1 -123q0 -58 -17.5 -111.5t-49.5 -99.5
t-78.5 -82.5t-102.5 -58.5q-56 -20 -90.5 -67.5t-34.5 -109.5q0 -38 14.5 -72t40 -59.5t59.5 -40t72 -14.5h186q39 0 73 15t59.5 40.5t40 59.5t14.5 71h186zM744 1118h-200v186h200v-186z" />
    <glyph glyph-name="quotedblright" unicode="&#x201d;" horiz-adv-x="929" 
d="M559 1304h180v-181l-180 -192v373zM192 1304h180v-181l-180 -192v373z" />
    <glyph glyph-name="quotedblleft" unicode="&#x201c;" horiz-adv-x="929" 
d="M372 931l-180 192v181h180v-373zM739 931l-180 192v181h180v-373z" />
    <glyph glyph-name="quoteleft" unicode="&#x2018;" horiz-adv-x="537" 
d="M372 931l-180 192v181h180v-373z" />
    <glyph glyph-name="quoteright" unicode="&#x2019;" horiz-adv-x="558" 
d="M192 1304h180v-181l-180 -192v373z" />
    <glyph glyph-name="quotesinglbase" unicode="&#x201a;" horiz-adv-x="558" 
d="M186 186h186v-186l-186 -185v371z" />
    <glyph glyph-name="quotedblbase" unicode="&#x201e;" horiz-adv-x="902" 
d="M557 186h186v-186l-186 -185v371zM186 186h186v-186l-186 -185v371z" />
    <glyph glyph-name="onesuperior" unicode="&#xb9;" horiz-adv-x="730" 
d="M186 1133l192 171h181v-745h-187v491l-186 -165v248z" />
    <glyph glyph-name="twosuperior" unicode="&#xb2;" horiz-adv-x="971" 
d="M791 559h-605v173l350 207q23 17 36.5 42t13.5 40q0 19 -8.5 36t-22 30.5t-33.5 21.5t-43 8q-24 0 -43.5 -8t-33.5 -21.5t-22 -30.5t-8 -36h-186q0 58 23 109.5t63 90t93.5 61t113.5 22.5q59 0 112.5 -22.5t93 -61t63.5 -90t24 -109.5q0 -33 -10.5 -66.5t-28.5 -65.5
t-43 -59.5t-54 -47.5l-63 -37h218v-186z" />
    <glyph glyph-name="threesuperior" unicode="&#xb3;" horiz-adv-x="977" 
d="M372 839q0 -19 9 -35.5t25 -30t37 -21t46 -7.5q22 0 42.5 7t36.5 19t26.5 29.5t10.5 38.5q0 19 -10.5 36.5t-26.5 29.5t-36.5 19t-42.5 7q-23 0 -39.5 -4.5t-34.5 -16.5l-101 156l2 2q3 0 3 2l73 47h-206v187h605v-143l-135 -90q68 -41 101.5 -101.5t33.5 -130.5
q0 -59 -24 -110t-65.5 -88.5t-96.5 -59.5t-116 -22q-62 0 -116.5 22t-96.5 59.5t-66 88.5t-24 110h186z" />
    <glyph glyph-name="threequarters" unicode="&#xbe;" horiz-adv-x="1691" 
d="M1510 740l-264 -465h73v92h186v-92h47v-187h-47v-93h-186v93h-290v180l267 472h214zM1525 1308l-869 -1305h-224l869 1305h224zM372 839q0 -19 9 -35.5t25 -30t37 -21t46 -7.5q22 0 42.5 7t36.5 19t26.5 29.5t10.5 38.5q0 19 -10.5 36.5t-26.5 29.5t-36.5 19t-42.5 7
q-23 0 -39.5 -4.5t-34.5 -16.5l-101 156l2 2q3 0 3 2l73 47h-206v187h605v-143l-135 -90q68 -41 101.5 -101.5t33.5 -130.5q0 -59 -24 -110t-65.5 -88.5t-96.5 -59.5t-116 -22q-62 0 -116.5 22t-96.5 59.5t-66 88.5t-24 110h186z" />
    <glyph glyph-name="paragraph" unicode="&#xb6;" horiz-adv-x="1628" 
d="M549 1304h284h284v-1304h-186v1117h-193v-558.5v-558.5h-189v373q-133 0 -248 92.5t-115 373.5q0 272 120 368.5t243 96.5z" />
    <glyph glyph-name="copyright" unicode="&#xa9;" 
d="M745 1304q237 0 401 -197q157 -192 157 -456q0 -263 -157 -453q-164 -198 -401 -198q-238 0 -401 198q-158 191 -158 453q0 263 158 456q163 197 401 197zM1006 519q-14 -44 -31 -81q-21 -42 -49 -71q-34 -41 -80 -63q-46 -24 -101 -24q-127 0 -209 123q-70 103 -70 248
q0 146 70 250q82 124 209 124q52 0 101 -25q46 -23 80 -63q28 -33 49 -71q17 -38 31 -81l-179 -49q-9 26 -17 45q-11 18 -23 33q-12 13 -25 20q-9 5 -17 5q-28 0 -54 -41q-40 -60 -40 -147t40 -145q26 -40 54 -40q10 0 19 4q11 5 23 20q9 9 23 32q9 20 17 46zM1003 988
q-108 129 -258 129q-152 0 -258 -129q-115 -137 -115 -337q0 -199 115 -335q107 -130 258 -130q149 0 258 130q114 137 114 335q0 199 -114 337z" />
    <glyph glyph-name="registered" unicode="&#xae;" horiz-adv-x="1467" 
d="M745 1304q237 0 401 -197q157 -192 157 -456q0 -263 -157 -453q-164 -198 -401 -198q-238 0 -401 198q-158 191 -158 453q0 263 158 456q163 197 401 197zM903 538l126 -187q88 127 88 300q0 199 -114 337q-108 129 -258 129q-152 0 -258 -129q-115 -137 -115 -337
q0 -199 115 -335q107 -130 258 -130q149 0 258 130q12 14 25 33h-222l-107 160v-160h-187v536v93h93h186q83 0 136.5 -41.5t77.5 -100.5q18 -42 18 -91q0 -50 -18 -91q-31 -81 -102 -116zM699 791v-92h92q33 0 42 23q4 9 4 23t-4 23q-9 23 -42 23h-92z" />
    <glyph glyph-name="section" unicode="&#xa7;" horiz-adv-x="963" 
d="M559 1025q0 38 -28 65q-29 27 -65 27q-39 0 -66 -27q-28 -30 -28 -65q0 -20 10 -41q7 -18 26 -32l223 -169v0q38 -31 67 -69q45 -64 45 -138q0 -78 -46 -141l10 -18t10 -17q28 -62 28 -120q0 -116 -82 -198t-197 -82q-116 0 -198 82t-82 198h186q0 -39 28 -66
q27 -28 66 -28q38 0 65 28q28 25 28 66q0 17 -9 40q-9 18 -27 32l-223 169h1q-40 28 -68 69q-45 63 -45 138q-2 75 46 142q-13 18 -19 34q-29 59 -29 121q0 115 82 197t198 82q115 0 197 -82t82 -197h-186zM519 634l-144 109q-2 -10 -2 -13q0 -17 13 -33q6 -11 26 -28v0
l144 -108q2 10 2 14q0 15 -13 34q-11 14 -26 25z" />
    <glyph glyph-name="sterling" unicode="&#xa3;" horiz-adv-x="1470" 
d="M280 651h92v188q0 193 134 329t328 136q193 0 332 -136q137 -136 137 -329h-186q0 115 -82 196q-84 82 -201 82q-118 0 -195 -80q-80 -79 -80 -198v-188h186v-185h-186v-93q0 -99 -50 -187h794v-186h-1117v186q77 0 132 54q54 56 54 133v93h-92v185z" />
    <glyph glyph-name="onequarter" unicode="&#xbc;" horiz-adv-x="1551" 
d="M1370 740l-263 -465h72v92h186v-92h48v-187h-48v-93h-186v93h-232h-58v180l267 472h214zM1385 1308l-869 -1305h-224l869 1305h224zM169 1133l191 171h182v-745h-187v491l-186 -165v248z" />
    <glyph glyph-name="onehalf" unicode="&#xbd;" horiz-adv-x="1760" 
d="M1385 1308l-869 -1305h-224l869 1305h224zM169 1133l191 171h182v-745h-187v491l-186 -165v248zM1619 5h-605v173l350 207q23 17 36.5 42t13.5 40q0 18 -8 35.5t-22 30.5t-33.5 21.5t-42.5 8.5q-25 0 -44.5 -8.5t-33.5 -21.5t-22 -30.5t-8 -35.5h-186q0 57 23 108.5
t63 90.5t94 61.5t114 22.5q58 0 111.5 -22.5t93 -61.5t63.5 -90.5t24 -108.5q0 -34 -10.5 -67.5t-28.5 -65t-42.5 -59.5t-53.5 -47l-64 -37h218v-186z" />
    <glyph glyph-name="bullet" unicode="&#x2022;" horiz-adv-x="934" 
d="M466 1062q56 0 107 -23t89 -61t60.5 -88.5t22.5 -107.5q0 -58 -22.5 -108.5t-60.5 -89t-89 -60.5t-107 -22q-58 0 -109 22t-89 60.5t-60 89t-22 108.5q0 57 22 107.5t60 88.5t89 61t109 23z" />
    <glyph glyph-name="brokenbar" unicode="&#xa6;" horiz-adv-x="558" 
d="M186 809v495h186v-495h-186zM372 322v-522h-186v522h186z" />
    <glyph glyph-name="ordfeminine" unicode="&#xaa;" 
d="M466 375q-58 0 -109 22t-89 60.5t-60 89t-22 108.5q0 57 22 107.5t60 88.5t89 60.5t109 22.5h373q92 0 92 93t-92 93h-373q-94 0 -94 -93h-186q0 56 22 107t60 89t89 60.5t109 22.5h373q56 0 107 -22.5t89 -60.5t60 -89t22 -107v-372q0 -94 94 -94h92v-186h-92
q-108 0 -186 72q-82 -72 -186 -72h-373zM931 764q-40 -15 -92 -15h-373q-94 0 -94 -94t94 -94h373q92 0 92 94v109z" />
    <glyph glyph-name="ordmasculine" unicode="&#xba;" 
d="M745 1304q114 0 216 -37t177.5 -100t120 -148t44.5 -180q0 -96 -44.5 -181t-120 -148t-177.5 -100t-216 -37t-216 36.5t-178 100t-120.5 148t-44.5 181.5t44.5 181t120.5 147.5t178 100t216 36.5zM745 1118q-76 0 -143.5 -22t-118.5 -59.5t-81 -88t-30 -109.5t30 -110
t81 -88.5t118.5 -59.5t143.5 -22q75 0 142.5 22t118.5 60t81 89t30 109q0 57 -30 108t-81 89t-118.5 60t-142.5 22z" />
    <glyph glyph-name="Ydieresis" unicode="&#x178;" horiz-adv-x="1676" 
d="M931 507v-507h-186v507l-559 797h228l425 -606l422 606h229zM466 1677h186v-187h-186v187zM1024 1677h186v-187h-186v187z" />
    <glyph glyph-name="cent" unicode="&#xa2;" horiz-adv-x="1394" 
d="M604 0v218q-38 8 -75 21q-102 37 -178 100.5t-120.5 148t-44.5 181.5t44.5 181t120.5 148t178 99q37 14 75 22v185h186v-171q49 -3 95 -14q67 -14 126 -41t109 -65t88 -84l-165 -93q-97 98 -253 110v-556q156 13 253 111l165 -92q-76 -95 -197 -150q-102 -48 -221 -55
v-204h-186zM483 866q-51 -37 -81 -87.5t-30 -109.5t30 -110t81 -88.5t118 -59.5q1 -1 3 -1v518q-2 -2 -3 -2q-67 -22 -118 -60z" />
    <glyph glyph-name="endash" unicode="&#x2013;" horiz-adv-x="1303" 
d="M186 373v186h909v-186h-909z" />
    <glyph glyph-name="emdash" unicode="&#x2014;" horiz-adv-x="1494" 
d="M186 373v186h1159v-186h-1159z" />
    <glyph glyph-name="logicalnot" unicode="&#xac;" horiz-adv-x="1124" 
d="M186 373v186h745v-372h-186v186h-559z" />
    <glyph glyph-name="uni00AD" unicode="&#xad;" horiz-adv-x="1124" 
d="M186 373v186h745v-186h-745z" />
    <glyph glyph-name="dagger" unicode="&#x2020;" horiz-adv-x="1064" 
d="M439 -200v1029h-269v186h269v289h186v-289h290v-186h-290v-1029h-186z" />
    <glyph glyph-name="daggerdbl" unicode="&#x2021;" horiz-adv-x="1064" 
d="M439 -200v319h-280v186h280v541h-280v186h280v272h186v-272h279v-186h-279v-541h279v-186h-279v-319h-186z" />
    <glyph glyph-name="plusminus" unicode="&#xb1;" horiz-adv-x="1114" 
d="M180 832h280v279h186v-279h279v-186h-279v-280h-186v280h-280v186zM185 8v186h745v-186h-745z" />
    <glyph glyph-name="florin" unicode="&#x192;" horiz-adv-x="1026" 
d="M187 -193h93q93 0 93 93l-1 845h-186v186h186l1 101q0 56 30 105.5t81.5 86.5t118.5 58.5t142 21.5q23 0 46 -2.5t48 -6.5v-190q-13 4 -19 6.5t-13.5 3.5t-20.5 1.5t-41 0.5q-23 0 -55 -7t-61.5 -19.5t-49.5 -29.5t-20 -36v-94h280v-186h-280v-845q0 -58 -22.5 -109
t-60.5 -89t-89 -60t-107 -22h-93v187z" />
    <glyph glyph-name="Scaron" unicode="&#x160;" horiz-adv-x="1676" 
d="M1153 1674l-230 -276h-174l-214 276h198l110 -94l111 94h199zM186 930q0 82 32.5 141.5t85.5 101t121.5 67t141.5 40t143.5 19.5t128.5 5q176 0 343.5 -46.5t307.5 -140.5l-162 -114q-105 56 -229 85t-260 29q-30 0 -77 -1t-98.5 -6.5t-103.5 -16.5t-94 -31.5t-68 -53
t-26 -78.5q0 -143 174 -161q88 -9 184 -16t201 -13q105 -5 200.5 -25t183.5 -52q175 -65 175 -289q-1 -83 -34 -142.5t-86 -101t-120.5 -67t-140 -40t-143 -19t-127.5 -4.5q-191 0 -359 49t-294 137l162 115q105 -58 231.5 -86.5t259.5 -28.5q28 0 74 0.5t97.5 6t103.5 17
t94 32t68.5 53t26.5 79.5q0 142 -174 160q-88 9 -183.5 16.5t-200.5 13.5q-210 11 -385 76q-174 63 -174 290z" />
    <glyph glyph-name="scaron" unicode="&#x161;" 
d="M1080 1340l-230 -276h-174l-214 276h199l109 -94l111 94h199zM745 931q305 0 558 -92l-69 -162q-214 68 -489 68q-31 0 -85 -2.5t-133 -4.5q-155 -7 -155 -96q0 -83 94 -83h559q56 0 107 -21.5t89 -57.5t60 -84.5t22 -103.5q0 -216 -203 -254q-204 -38 -355 -38
q-306 0 -559 92l70 163q212 -69 489 -69q30 0 83.5 1t133.5 5q156 4 156 98q0 83 -93 83h-559q-58 0 -109 21t-89 57t-60 84.5t-22 104.5q0 215 202 253t357 38z" />
    <glyph glyph-name="Zcaron" unicode="&#x17d;" horiz-adv-x="1676" 
d="M1153 1674l-230 -276h-174l-214 276h198l110 -94l111 94h199zM186 0v186l1028 931h-1028v187h1304v-187l-1028 -931h1028v-186h-1304z" />
    <glyph glyph-name="zcaron" unicode="&#x17e;" 
d="M1067 1373l-230 -276h-174l-214 276h199l110 -93l111 93h198zM186 931h1117v-186l-794 -559h794v-186h-1117v186l794 559h-794v186z" />
    <glyph glyph-name="cedilla" unicode="&#xb8;" horiz-adv-x="558" 
d="M184 12h186v-186l-186 -185v371z" />
    <glyph glyph-name="currency" unicode="&#xa4;" 
d="M1178 1112l137 -126l-96 -104q25 -32 44 -68q45 -84 45 -180t-45 -181q-19 -35 -43 -67l103 -94l-126 -137l-117 105q-52 -32 -114 -54q-102 -37 -216 -37q-115 0 -216 35q-68 25 -125 62l-102 -111l-137 125l103 112q-21 28 -39 61q-43 84 -43 181t43 182q19 33 41 63
l-90 83l127 139l103 -95q54 34 119 57q101 37 215.5 37t216.5 -37q62 -23 115 -57zM750 914q-77 0 -144.5 -22t-118 -59.5t-80.5 -88.5t-30 -110t30 -109.5t80.5 -88t118 -59.5t144.5 -22q75 0 142.5 22t118.5 60t81 88.5t30 108.5t-30 109t-81 89t-118.5 60t-142.5 22z" />
    <glyph glyph-name="guilsinglright" unicode="&#x203a;" horiz-adv-x="1008" 
d="M440 0h-254l432 466l-432 465h254l432 -465z" />
    <glyph glyph-name="guilsinglleft" unicode="&#x2039;" horiz-adv-x="1008" 
d="M618 931h254l-432 -465l432 -466h-254l-432 466z" />
    <glyph glyph-name="guillemotleft" unicode="&#xab;" horiz-adv-x="1519" 
d="M1108 931h254l-432 -465l432 -466h-254l-432 466zM618 931h254l-432 -465l432 -466h-254l-432 466z" />
    <glyph glyph-name="guillemotright" unicode="&#xbb;" horiz-adv-x="1519" 
d="M440 0h-254l432 466l-432 465h254l432 -465zM930 0h-254l432 466l-432 465h254l432 -465z" />
    <glyph glyph-name="trademark" unicode="&#x2122;" horiz-adv-x="2276" 
d="M186 1304h737v-106h-317v-631h-105v631h-315v106zM1133 1304h125l349 -540l349 540h124v-737h-105v573l-301 -468h-135l-301 468v-573h-105v737z" />
    <glyph glyph-name="nonbreakingspace" unicode="&#xa0;" horiz-adv-x="1064" 
 />
    <glyph glyph-name="macron" unicode="&#xaf;" horiz-adv-x="1303" 
d="M180 1029v186h909v-186h-909z" />
    </font>
</defs>
</svg>
